<?xml version="1.0" encoding="UTF-8"?>
<svg width="120px" height="40px" viewBox="0 0 120 40" version="1.1" xmlns="http://www.w3.org/2000/svg" xmlns:xlink="http://www.w3.org/1999/xlink">
    <title>CAB890D9-3BBF-416C-94D4-4147D00FC155</title>
    <g id="Hifis" stroke="none" stroke-width="1" fill="none" fill-rule="evenodd">
        <g id="Research---Desktop" transform="translate(-49.000000, -22.000000)">
            <g id="BEAM_Collaborative-logo-color" transform="translate(49.000000, 22.000000)">
                <g id="other" fill="#FFFFFF">
                    <path d="M2.16660656,39.4911856 C1.49008294,39.1528978 0.959730737,38.6795714 0.576030773,38.0712064 C0.191849982,37.4623805 0,36.7719783 0,35.9995391 C0,35.2280217 0.191849982,34.5376195 0.576030773,33.9287936 C0.959730737,33.3204286 1.49008294,32.8466413 2.16660656,32.5078926 C2.84313018,32.1691439 3.60331771,32 4.4466883,32 C5.22226229,32 5.91369155,32.1308907 6.52193773,32.3931328 C7.13018392,32.655375 7.6316865,33.0346814 8.02692631,33.5301302 L6.32816444,34.983293 C5.83387426,34.3859892 5.25255439,34.0873373 4.58372401,34.0873373 C4.02115639,34.0873373 3.56869816,34.2606291 3.22683015,34.606291 C2.88496213,34.9524139 2.71378771,35.4169835 2.71378771,35.9995391 C2.71378771,36.5830165 2.88496213,37.0475861 3.22683015,37.3932481 C3.56869816,37.7393709 4.02115639,37.9126627 4.58372401,37.9126627 C5.25255439,37.9126627 5.83387426,37.6135499 6.32816444,37.0162461 L8.02692631,38.4698698 C7.6316865,38.9653186 7.13018392,39.3441641 6.52193773,39.6064063 C5.91369155,39.8686485 5.22226229,40 4.4466883,40 C3.60331771,40 2.84313018,39.8303952 2.16660656,39.4911856" id="Fill-1"></path>
                    <path d="M14.4309591,37.6776126 C14.7004043,37.5209125 14.9150959,37.2987671 15.0745536,37.0107155 C15.2340114,36.7231248 15.3137403,36.3862196 15.3137403,35.9995391 C15.3137403,35.6133195 15.2340114,35.2768752 15.0745536,34.9888236 C14.9150959,34.7012329 14.7004043,34.4790875 14.4309591,34.3223874 C14.1615139,34.1656873 13.8594087,34.0873373 13.525604,34.0873373 C13.1913191,34.0873373 12.8896942,34.1656873 12.620249,34.3223874 C12.3508038,34.4790875 12.1361122,34.7012329 11.9766544,34.9888236 C11.8171967,35.2768752 11.7374678,35.6133195 11.7374678,35.9995391 C11.7374678,36.3862196 11.8171967,36.7231248 11.9766544,37.0107155 C12.1361122,37.2987671 12.3508038,37.5209125 12.620249,37.6776126 C12.8896942,37.8343127 13.1913191,37.9126627 13.525604,37.9126627 C13.8594087,37.9126627 14.1615139,37.8343127 14.4309591,37.6776126 Z M11.2134665,39.4861159 C10.5304878,39.144141 9.99495952,38.6680493 9.60784219,38.0596843 C9.22072486,37.4517802 9.0266859,36.7646042 9.0266859,35.9995391 C9.0266859,35.2349349 9.22072486,34.5482198 9.60784219,33.9398548 C9.99495952,33.3314898 10.5304878,32.855859 11.2134665,32.5134232 C11.8969255,32.1714483 12.6673179,32 13.525604,32 C14.3834099,32 15.1542825,32.1714483 15.8377415,32.5134232 C16.5207202,32.855859 17.0562486,33.3314898 17.4433659,33.9398548 C17.8304832,34.5482198 18.0245222,35.2349349 18.0245222,35.9995391 C18.0245222,36.7646042 17.8304832,37.4517802 17.4433659,38.0596843 C17.0562486,38.6680493 16.5207202,39.144141 15.8377415,39.4861159 C15.1542825,39.8285517 14.3834099,40 13.525604,40 C12.6673179,40 11.8969255,39.8285517 11.2134665,39.4861159 L11.2134665,39.4861159 Z" id="Fill-4"></path>
                    <polyline id="Fill-5" points="21.0238009 32 23.5883917 32 23.5883917 37.9081817 27.0223585 37.9081817 27.0223585 40 21.0238009 40 21.0238009 32"></polyline>
                    <polyline id="Fill-6" points="29.0218776 32 31.5862724 32 31.5862724 37.9081817 35.0204351 37.9081817 35.0204351 40 29.0218776 40 29.0218776 32"></polyline>
                    <path d="M42.2229102,36.6627304 L41.4977423,34.6514038 L40.773024,36.6627304 L42.2229102,36.6627304 Z M42.9157085,38.6060971 L40.0797761,38.6060971 L39.5789472,40 L37.0199543,40 L40.2825354,32 L42.7556591,32 L46.0177906,40 L43.4165374,40 L42.9157085,38.6060971 L42.9157085,38.6060971 Z" id="Fill-7"></path>
                    <path d="M53.2564851,37.4854802 C53.2564851,37.0666345 52.9553718,36.8569707 52.3526564,36.8569707 L50.7067987,36.8569707 L50.7067987,38.1139896 L52.3526564,38.1139896 C52.9553718,38.1139896 53.2564851,37.9048078 53.2564851,37.4854802 Z M50.7067987,33.8855284 L50.7067987,35.0736233 L51.9816419,35.0736233 C52.5765361,35.0736233 52.8742276,34.8760092 52.8742276,34.4798168 C52.8742276,34.0836245 52.5765361,33.8855284 51.9816419,33.8855284 L50.7067987,33.8855284 Z M55.6213974,36.5827208 C55.8838938,36.9181829 56.0153865,37.321605 56.0153865,37.7944331 C56.0153865,38.4952404 55.7216055,39.0384384 55.1345324,39.423063 C54.5474593,39.8076877 53.6974009,40 52.5843572,40 L48.0173098,40 L48.0173098,32 L52.3526564,32 C53.4344156,32 54.2517231,32.1899024 54.8040899,32.5711532 C55.3564568,32.9519219 55.633129,33.458971 55.633129,34.0908543 C55.633129,34.4648753 55.5382979,34.7998554 55.3491245,35.0967586 C55.1594622,35.3936619 54.8793682,35.6341728 54.5083537,35.8168454 C54.9873975,35.9922882 55.3584121,36.2477407 55.6213974,36.5827208 L55.6213974,36.5827208 Z" id="Fill-8"></path>
                    <path d="M63.4191788,37.6776126 C63.688624,37.5209125 63.9033156,37.2987671 64.0627734,37.0107155 C64.2222311,36.7231248 64.30196,36.3862196 64.30196,35.9995391 C64.30196,35.6133195 64.2222311,35.2768752 64.0627734,34.9888236 C63.9033156,34.7012329 63.688624,34.4790875 63.4191788,34.3223874 C63.1497336,34.1656873 62.8476284,34.0873373 62.5138238,34.0873373 C62.1795388,34.0873373 61.8779139,34.1656873 61.6084687,34.3223874 C61.3390235,34.4790875 61.1243319,34.7012329 60.9648742,34.9888236 C60.8054164,35.2768752 60.7256875,35.6133195 60.7256875,35.9995391 C60.7256875,36.3862196 60.8054164,36.7231248 60.9648742,37.0107155 C61.1243319,37.2987671 61.3390235,37.5209125 61.6084687,37.6776126 C61.8779139,37.8343127 62.1795388,37.9126627 62.5138238,37.9126627 C62.8476284,37.9126627 63.1497336,37.8343127 63.4191788,37.6776126 Z M60.2016863,39.4861159 C59.5187076,39.144141 58.9831793,38.6680493 58.5960619,38.0596843 C58.2089446,37.4517802 58.0149056,36.7646042 58.0149056,35.9995391 C58.0149056,35.2349349 58.2089446,34.5482198 58.5960619,33.9398548 C58.9831793,33.3314898 59.5187076,32.855859 60.2016863,32.5134232 C60.8851453,32.1714483 61.6555376,32 62.5138238,32 C63.3716297,32 64.1425023,32.1714483 64.8259613,32.5134232 C65.5094203,32.855859 66.0444683,33.3314898 66.4315856,33.9398548 C66.818703,34.5482198 67.0127419,35.2349349 67.0127419,35.9995391 C67.0127419,36.7646042 66.818703,37.4517802 66.4315856,38.0596843 C66.0444683,38.6680493 65.5094203,39.144141 64.8259613,39.4861159 C64.1425023,39.8285517 63.3716297,40 62.5138238,40 C61.6555376,40 60.8851453,39.8285517 60.2016863,39.4861159 L60.2016863,39.4861159 Z" id="Fill-9"></path>
                    <path d="M73.1215181,34.3255814 C72.9548077,34.1617062 72.704962,34.0797686 72.3706615,34.0797686 L71.4737685,34.0797686 L71.4737685,35.9542114 L72.3706615,35.9542114 C72.704962,35.9542114 72.9548077,35.8722738 73.1215181,35.7083986 C73.2891082,35.5445234 73.3722434,35.3136522 73.3722434,35.016749 C73.3722434,34.7198458 73.2891082,34.4894566 73.1215181,34.3255814 Z M72.1414897,37.9881913 L71.4737685,37.9881913 L71.4737685,40 L69.0122611,40 L69.0122611,32 L72.5272549,32 C73.2015742,32 73.7892393,32.1214604 74.2898103,32.3653452 C74.7908212,32.60923 75.1765864,32.9596337 75.4479856,33.4170382 C75.7185051,33.8739607 75.8544247,34.407519 75.8544247,35.016749 C75.8544247,35.5883841 75.7365398,36.0877214 75.4994503,36.5142788 C75.2632406,36.9408362 74.9232218,37.2801542 74.4780743,37.5312688 L76.0105782,40 L73.3828003,40 L72.1414897,37.9881913 L72.1414897,37.9881913 Z" id="Fill-10"></path>
                    <path d="M83.2130533,36.6627304 L82.4874358,34.6514038 L81.7631671,36.6627304 L83.2130533,36.6627304 Z M83.9058516,38.6060971 L81.0703688,38.6060971 L80.5690903,40 L78.0100974,40 L81.2722289,32 L83.7458021,32 L87.0079336,40 L84.4071301,40 L83.9058516,38.6060971 L83.9058516,38.6060971 Z" id="Fill-11"></path>
                    <polyline id="Fill-12" points="91.2282923 34.0908543 89.0074528 34.0908543 89.0074528 32 96.0057699 32 96.0057699 34.0908543 93.7849304 34.0908543 93.7849304 40 91.2282923 40 91.2282923 34.0908543"></polyline>
                    <polygon id="Fill-13" points="98.0052891 40 101.004568 40 101.004568 32 98.0052891 32"></polygon>
                    <polyline id="Fill-14" points="112.001923 32 108.769168 40 106.235922 40 103.004087 32 105.776797 32 107.600863 36.6742981 109.468217 32 112.001923 32"></polyline>
                    <polyline id="Fill-15" points="120 37.965538 120 40 114.001442 40 114.001442 32 119.866989 32 119.866989 34.03398 116.393041 34.03398 116.393041 34.9714423 119.444047 34.9714423 119.444047 36.914327 116.393041 36.914327 116.393041 37.965538 120 37.965538"></polyline>
                    <path d="M14.1706148,21.4838319 L7.68550619,21.4838319 L7.68550619,16.0071429 L14.1706148,16.0071429 C16.8791013,16.0071429 18.2335744,16.9201513 18.2335744,18.7452605 C18.2335744,20.5717311 16.8791013,21.4838319 14.1706148,21.4838319 Z M7.68550619,5.51571429 L12.9986072,5.51571429 C15.6027621,5.51571429 16.9052991,6.37744538 16.9052991,8.09954622 C16.9052991,9.84887395 15.6027621,10.7224034 12.9986072,10.7224034 L7.68550619,10.7224034 L7.68550619,5.51571429 Z M24.718683,15.448084 C23.8330129,14.3036471 22.6090693,13.4614286 21.0468522,12.9209748 C22.2184002,12.3301513 23.1233738,11.5265042 23.7617733,10.5104874 C24.3997131,9.49492437 24.718683,8.34458824 24.718683,7.05811765 C24.718683,4.89811765 23.8068151,3.18191597 21.9844583,1.90905882 C20.1607225,0.636201681 17.504172,0 14.0143471,0 L0.0288496213,0 L0.0288496213,27 L14.7956855,27 C14.8839308,27 14.9652819,26.9945546 15.0526079,26.9941008 L26.0225989,18.9612605 C25.9201057,17.6117143 25.486233,16.4400504 24.718683,15.448084 L24.718683,15.448084 Z" id="Fill-16"></path>
                    <polyline id="Fill-18" points="52.0163481 27 52.0163481 25 45.018031 27 52.0163481 27"></polyline>
                    <polyline id="Fill-19" points="37.8740295 5.90218995 44.1601852 5.90218995 52.0163481 0.291387723 52.0163481 0 30.0216372 0 30.0216372 16 37.8740295 10.391921 37.8740295 5.90218995"></polyline>
                    <polyline id="Fill-22" points="53.0161077 28 60.9552305 28 63.1164105 22.4454637 74.750439 22.4454637 76.9120813 28 85.0084145 28 80.3207717 17 54.2673172 25.0540777 53.0161077 28"></polyline>
                    <polyline id="Fill-24" points="107.255363 8.45408963 103.083157 15.4353494 100.102085 10.5692886 87.0079336 14.4411783 87.0079336 27 94.2000528 27 94.2000528 12.8963752 101.235419 24.3038337 104.694147 24.3038337 111.76928 12.5052335 111.847887 27 119.00024 27 118.937354 5 107.255363 8.45408963"></polyline>
                </g>
                <g id="beam-area" transform="translate(15.000000, 0.000000)" fill="#F97641">
                    <path d="M11,19.6299853 C11,19.4157722 10.9912629,19.2060784 10.9756281,19 L0,27 C3.51920906,26.9697209 6.22540864,26.3347644 8.10756239,25.0851881 C10.0357008,23.8048808 11,21.9867812 11,19.6299853" id="Fill-17"></path>
                    <polygon id="Fill-20" points="22.6725979 16.9070867 34.8469751 16.9070867 34.8469751 11.0645558 22.6725979 11.0645558 22.6725979 11 15 16.7384985 15 28 29.7718233 28 37 25.8315758 37 21.9600863 22.6725979 21.9600863"></polygon>
                    <polyline id="Fill-21" points="37 6 37 0 29 6 37 6"></polyline>
                    <path d="M51.106272,16.6435571 L54.6362475,7.72452173 L58.166223,16.6435571 L51.106272,16.6435571 Z M50.8709403,0 L40,25 L66,17.1480635 L58.5192205,0 L50.8709403,0 L50.8709403,0 Z" id="Fill-23"></path>
                    <polyline id="Fill-25" points="97.4038949 0 92 9 104 5.46814621 103.984326 0 97.4038949 0"></polyline>
                    <polyline id="Fill-26" points="78.359983 0 72 0 72 15 85 11.0728493 78.359983 0"></polyline>
                </g>
            </g>
        </g>
    </g>
</svg>